# xmcd
# 
# Track frame offsets:
#     150
#     12667
#     26121
#     37970
#     50004
#     64644
#     76656
#     88111
#     102992
#     120168
# 
# Disc length: 1743
# 
# Revision: 1
# Processed by: cddbd v1.5.2PL0 Copyright (c) Steve Scherf et al.
# Submitted via: fre:ac v1.0.31
# 
DISCID=7506cd0a
DTITLE=Antonio Aguilar - Colección de Oro CD1/3
DYEAR=2003
DGENRE=Banda
TTITLE0=Pero Hombre Amigo (El Chubasco)
TTITLE1=A Los Angeles del Cielo
TTITLE2=De Puntitas
TTITLE3=Te Vengo A Decir Adios
TTITLE4=Sufro Porque Te Quiero
TTITLE5=Noches Eternas
TTITLE6=Tu Amor and El Mío
TTITLE7=Buca OtroAmor
TTITLE8=Indita Mía
TTITLE9=La Recien Casada
EXTD=YEAR: 2003
EXTT0=
EXTT1=
EXTT2=
EXTT3=
EXTT4=
EXTT5=
EXTT6=
EXTT7=
EXTT8=
EXTT9=
PLAYORDER=
